<svg width="30" height="23" viewBox="0 0 30 23" fill="none" xmlns="http://www.w3.org/2000/svg">
<path d="M18.75 8.4375C18.75 8.18886 18.8488 7.9504 19.0246 7.77459C19.2004 7.59877 19.4389 7.5 19.6875 7.5H25.3125C25.5611 7.5 25.7996 7.59877 25.9754 7.77459C26.1512 7.9504 26.25 8.18886 26.25 8.4375C26.25 8.68614 26.1512 8.9246 25.9754 9.10041C25.7996 9.27623 25.5611 9.375 25.3125 9.375H19.6875C19.4389 9.375 19.2004 9.27623 19.0246 9.10041C18.8488 8.9246 18.75 8.68614 18.75 8.4375ZM18.75 14.0625C18.75 13.8139 18.8488 13.5754 19.0246 13.3996C19.2004 13.2238 19.4389 13.125 19.6875 13.125H25.3125C25.5611 13.125 25.7996 13.2238 25.9754 13.3996C26.1512 13.5754 26.25 13.8139 26.25 14.0625C26.25 14.3111 26.1512 14.5496 25.9754 14.7254C25.7996 14.9012 25.5611 15 25.3125 15H19.6875C19.4389 15 19.2004 14.9012 19.0246 14.7254C18.8488 14.5496 18.75 14.3111 18.75 14.0625ZM3.75 12.6562C3.75 12.2833 3.89816 11.9256 4.16188 11.6619C4.4256 11.3982 4.78329 11.25 5.15625 11.25H10.7812C10.966 11.2498 11.149 11.286 11.3197 11.3565C11.4904 11.4271 11.6455 11.5307 11.7762 11.6613C11.9068 11.792 12.0104 11.9471 12.081 12.1178C12.1515 12.2885 12.1877 12.4715 12.1875 12.6562V14.0625C12.1875 14.0625 12.1875 14.1056 12.18 14.1844C12.0968 14.8555 11.765 15.471 11.25 15.9094C10.6406 16.4381 9.63188 16.875 7.96875 16.875C3.75 16.875 3.75 14.0625 3.75 14.0625V12.6562ZM7.96875 9.375C8.59035 9.375 9.18649 9.12807 9.62603 8.68853C10.0656 8.24899 10.3125 7.65285 10.3125 7.03125C10.3125 6.40965 10.0656 5.81351 9.62603 5.37397C9.18649 4.93443 8.59035 4.6875 7.96875 4.6875C7.34715 4.6875 6.75101 4.93443 6.31147 5.37397C5.87193 5.81351 5.625 6.40965 5.625 7.03125C5.625 7.65285 5.87193 8.24899 6.31147 8.68853C6.75101 9.12807 7.34715 9.375 7.96875 9.375ZM15.9375 7.5C15.9375 7.99728 15.74 8.47419 15.3883 8.82582C15.0367 9.17746 14.5598 9.375 14.0625 9.375C13.5652 9.375 13.0883 9.17746 12.7367 8.82582C12.385 8.47419 12.1875 7.99728 12.1875 7.5C12.1875 7.00272 12.385 6.52581 12.7367 6.17418C13.0883 5.82254 13.5652 5.625 14.0625 5.625C14.5598 5.625 15.0367 5.82254 15.3883 6.17418C15.74 6.52581 15.9375 7.00272 15.9375 7.5ZM13.9406 14.9569C13.8544 15.2965 13.7305 15.6254 13.5712 15.9375H14.0625C14.8084 15.9375 15.5238 15.6412 16.0512 15.1137C16.5787 14.5863 16.875 13.8709 16.875 13.125C16.875 12.6277 16.6775 12.1508 16.3258 11.7992C15.9742 11.4475 15.4973 11.25 15 11.25H13.7475C13.95 11.6756 14.0625 12.1538 14.0625 12.6562V14.1337L14.0588 14.1881C14.0431 14.4475 14.0035 14.7048 13.9406 14.9569ZM4.6875 0C3.4443 0 2.25201 0.49386 1.37294 1.37294C0.49386 2.25201 0 3.4443 0 4.6875V17.8125C0 19.0557 0.49386 20.248 1.37294 21.1271C2.25201 22.0061 3.4443 22.5 4.6875 22.5H25.3125C26.5557 22.5 27.748 22.0061 28.6271 21.1271C29.5061 20.248 30 19.0557 30 17.8125V4.6875C30 3.4443 29.5061 2.25201 28.6271 1.37294C27.748 0.49386 26.5557 0 25.3125 0H4.6875ZM1.875 4.6875C1.875 3.94158 2.17132 3.22621 2.69876 2.69876C3.22621 2.17132 3.94158 1.875 4.6875 1.875H25.3125C26.0584 1.875 26.7738 2.17132 27.3012 2.69876C27.8287 3.22621 28.125 3.94158 28.125 4.6875V17.8125C28.125 18.5584 27.8287 19.2738 27.3012 19.8012C26.7738 20.3287 26.0584 20.625 25.3125 20.625H4.6875C3.94158 20.625 3.22621 20.3287 2.69876 19.8012C2.17132 19.2738 1.875 18.5584 1.875 17.8125V4.6875Z" fill="#858585"/>
</svg>
