<svg width="25" height="23" viewBox="0 0 25 23" fill="none" xmlns="http://www.w3.org/2000/svg">
<path d="M12.5 0C12.5 0 4.7675 6.675 0.44625 10.29C0.308746 10.4098 0.197962 10.5572 0.121085 10.7226C0.0442082 10.8879 0.00295452 11.0676 0 11.25C0 11.5815 0.131696 11.8995 0.366116 12.1339C0.600537 12.3683 0.918479 12.5 1.25 12.5H3.75V21.25C3.75 21.5815 3.8817 21.8995 4.11612 22.1339C4.35054 22.3683 4.66848 22.5 5 22.5H8.75C9.08152 22.5 9.39946 22.3683 9.63388 22.1339C9.8683 21.8995 10 21.5815 10 21.25V16.25H15V21.25C15 21.5815 15.1317 21.8995 15.3661 22.1339C15.6005 22.3683 15.9185 22.5 16.25 22.5H20C20.3315 22.5 20.6495 22.3683 20.8839 22.1339C21.1183 21.8995 21.25 21.5815 21.25 21.25V12.5H23.75C24.0815 12.5 24.3995 12.3683 24.6339 12.1339C24.8683 11.8995 25 11.5815 25 11.25C24.9983 11.0641 24.9542 10.8811 24.8713 10.7148C24.7884 10.5485 24.6686 10.4032 24.5213 10.29C20.23 6.675 12.5 0 12.5 0Z" fill="#2D325A"/>
</svg>
