<svg width="29" height="23" viewBox="0 0 29 23" fill="none" xmlns="http://www.w3.org/2000/svg">
<path d="M25.3125 16.875C24.7875 16.875 24.375 16.4625 24.375 15.9375C24.375 15.4125 24.7875 15 25.3125 15C25.8375 15 26.25 14.5875 26.25 14.0625C26.25 12.8193 25.7561 11.627 24.8771 10.7479C23.998 9.86886 22.8057 9.375 21.5625 9.375H19.6875C19.1625 9.375 18.75 8.9625 18.75 8.4375C18.75 7.9125 19.1625 7.5 19.6875 7.5C21.2438 7.5 22.5 6.24375 22.5 4.6875C22.5 3.13125 21.2438 1.875 19.6875 1.875C19.1625 1.875 18.75 1.4625 18.75 0.9375C18.75 0.4125 19.1625 0 19.6875 0C20.9307 0 22.123 0.49386 23.0021 1.37294C23.8811 2.25201 24.375 3.4443 24.375 4.6875C24.375 5.85 23.9625 6.9 23.25 7.725C26.0438 8.475 28.125 11.025 28.125 14.0625C28.125 15.6187 26.8688 16.875 25.3125 16.875ZM2.8125 16.875C1.25625 16.875 0 15.6187 0 14.0625C0 11.025 2.0625 8.475 4.875 7.725C4.18125 6.9 3.75 5.85 3.75 4.6875C3.75 3.4443 4.24386 2.25201 5.12294 1.37294C6.00202 0.49386 7.1943 0 8.4375 0C8.9625 0 9.375 0.4125 9.375 0.9375C9.375 1.4625 8.9625 1.875 8.4375 1.875C6.88125 1.875 5.625 3.13125 5.625 4.6875C5.625 6.24375 6.88125 7.5 8.4375 7.5C8.9625 7.5 9.375 7.9125 9.375 8.4375C9.375 8.9625 8.9625 9.375 8.4375 9.375H6.5625C5.3193 9.375 4.12702 9.86886 3.24794 10.7479C2.36886 11.627 1.875 12.8193 1.875 14.0625C1.875 14.5875 2.2875 15 2.8125 15C3.3375 15 3.75 15.4125 3.75 15.9375C3.75 16.4625 3.3375 16.875 2.8125 16.875ZM19.6875 22.5H8.4375C6.88125 22.5 5.625 21.2437 5.625 19.6875V17.8125C5.625 14.1938 8.56875 11.25 12.1875 11.25H15.9375C19.5563 11.25 22.5 14.1938 22.5 17.8125V19.6875C22.5 21.2437 21.2438 22.5 19.6875 22.5ZM12.1875 13.125C10.9443 13.125 9.75202 13.6189 8.87294 14.4979C7.99386 15.377 7.5 16.5693 7.5 17.8125V19.6875C7.5 20.2125 7.9125 20.625 8.4375 20.625H19.6875C20.2125 20.625 20.625 20.2125 20.625 19.6875V17.8125C20.625 16.5693 20.1311 15.377 19.2521 14.4979C18.373 13.6189 17.1807 13.125 15.9375 13.125H12.1875Z" fill="#858585"/>
</svg>
